<svg width="94" height="36" viewBox="0 0 94 36" fill="none" xmlns="http://www.w3.org/2000/svg">
<path d="M50.1235 27.7586H51.5399L53.388 32.9157L55.8061 27.5959H55.8752L58.3105 32.9157L60.1068 27.7586H61.4368L58.4314 35.9417H58.3624L55.8234 30.3128L53.2325 35.9417H53.1634L50.1235 27.7586Z" fill="#C62032"/>
<path d="M61.7998 31.7932C61.7998 29.4018 63.7688 27.6448 66.2215 27.6448C68.6741 27.6448 70.6432 29.4018 70.6432 31.7932C70.6432 34.1847 68.6741 35.9417 66.2215 35.9417C63.7688 35.9417 61.7998 34.1847 61.7998 31.7932ZM69.2614 31.7932C69.2614 30.085 68.0178 28.7998 66.2388 28.7998C64.4597 28.7998 63.2161 30.085 63.2161 31.7932C63.2161 33.5014 64.4597 34.7866 66.2388 34.7866C68.0178 34.7866 69.2614 33.5014 69.2614 31.7932Z" fill="#C62032"/>
<path d="M78.0529 35.8278H76.4466L74.9785 33.8756C74.7885 33.8919 74.5812 33.9082 74.3567 33.9082H73.5103V35.8278H72.1631V27.7587H74.3567C76.7229 27.7587 78.0184 28.9788 78.0184 30.8497C78.0184 32.1024 77.4311 33.0622 76.3084 33.5502L78.0529 35.8278ZM74.3221 32.8182C75.9802 32.8182 76.6366 32.0861 76.6366 30.8497C76.6366 29.6133 75.963 28.8975 74.3221 28.8975H73.5276V32.8279H74.3221V32.8182Z" fill="#C62032"/>
<path d="M80.2466 27.7587H81.5938V34.7053H85.3764V35.8278H80.2466V27.7587Z" fill="#C62032"/>
<path d="M87 27.7587H89.4181C92.2162 27.7587 93.9261 29.4018 93.9261 31.7932C93.9261 34.1847 92.2162 35.8278 89.4181 35.8278H87V27.7587ZM89.349 34.7053C91.5771 34.7053 92.5444 33.5014 92.5444 31.7932C92.5444 30.0851 91.5771 28.8812 89.349 28.8812H88.3472V34.7053H89.349Z" fill="#C62032"/>
<path d="M2.6081 25.1394H0L7.2025 9.32648H7.34067L14.5777 25.1394H11.8487L10.8987 22.9757H3.5408L2.6081 25.1394ZM7.25431 14.6788L4.50804 20.812H9.9315C9.94877 20.812 7.25431 14.6788 7.25431 14.6788Z" fill="#71382E"/>
<path d="M28.62 25.1394H25.5456L22.7475 21.3814C22.3523 21.4288 21.9541 21.4505 21.5557 21.4464H19.9321V25.1394H17.3413V9.65179H21.5557C26.081 9.65179 28.5682 11.9945 28.5682 15.5735C28.5682 17.965 27.4283 19.8033 25.2865 20.7469L28.62 25.1394ZM21.4694 19.3478C24.6302 19.3478 25.9256 17.9324 25.9256 15.5735C25.9256 13.2146 24.6129 11.8155 21.4694 11.8155H19.9494V19.3478H21.4694Z" fill="#71382E"/>
<path d="M31.2109 17.3957C31.2109 12.8242 34.9763 9.44037 39.6916 9.44037C44.4069 9.44037 48.1722 12.8079 48.1722 17.3957C48.1722 21.9834 44.4069 25.3444 39.6916 25.3444C34.9763 25.3444 31.2109 21.9671 31.2109 17.3957ZM45.5123 17.3957C45.5123 14.1094 43.1115 11.6529 39.7088 11.6529C36.3062 11.6529 33.9054 14.1094 33.9054 17.3957C33.9054 20.6819 36.3062 23.1384 39.7088 23.1384C43.1115 23.1384 45.5123 20.6819 45.5123 17.3957Z" fill="#71382E"/>
<path d="M50.1758 17.3957C50.1758 12.8242 53.9066 9.44037 58.6219 9.44037C61.6618 9.44037 63.5099 10.4653 64.8571 11.8969L63.0608 13.4912C62.0763 12.4663 60.9363 11.6366 58.5355 11.6366C55.202 11.6366 52.853 14.0932 52.853 17.3794C52.853 20.6656 55.2193 23.1222 58.9673 23.1222C60.7636 23.1222 62.0072 22.7317 62.9572 22.146V20.3891H58.5701V18.2253H65.358V23.3011C63.9762 24.3748 62.0763 25.3347 58.9673 25.3347C53.9238 25.3347 50.1758 21.9671 50.1758 17.3957Z" fill="#71382E"/>
<path d="M81.9738 25.1394H79.3657L86.5682 9.32648H86.7064L93.9434 25.1394H91.2144L90.2645 22.9757H82.9065L81.9738 25.1394ZM86.62 14.6788L83.891 20.812H89.3145C89.3318 20.812 86.62 14.6788 86.62 14.6788Z" fill="#71382E"/>
<path d="M74.3912 25.1069H71.8349C71.8349 25.0581 72.5086 19.3316 70.6086 14.7927C68.415 9.53796 65.9797 7.16276 65.9624 7.14649L67.8969 5.37323C68.0178 5.47084 70.7813 7.89484 73.2513 13.8166C75.4103 18.9997 74.3912 25.1069 74.3912 25.1069Z" fill="#C62032"/>
<path d="M72.9056 25.0907C72.8711 24.8792 72.6638 20.0149 75.2028 15.1344C77.8973 9.96098 79.4691 9.01741 79.6418 8.9198L80.7645 9.57054C80.7645 9.57054 78.83 10.9534 76.481 15.72C74.1665 20.4053 74.5983 25.0744 74.5983 25.1232L73.5274 25.1069L72.9056 25.0907Z" fill="#C62032"/>
<path d="M84.4611 10.4816C84.4611 10.4816 84.3747 9.92845 83.9602 8.26906C83.7303 7.31406 83.4184 6.37825 83.0275 5.47089C81.9862 5.53041 80.952 5.6719 79.9357 5.89387C78.174 6.26804 77.604 6.43073 77.604 6.43073L79.4694 8.12265L81.2312 8.13892L82.0084 9.61935L84.4611 10.4816Z" fill="#EEBC46"/>
<path d="M70.0044 1.15952C70.0044 1.15952 69.158 1.06191 66.5499 0.964303C65.0512 0.902681 63.5497 0.951636 62.0592 1.11072C61.7572 2.49382 61.5724 3.89732 61.5065 5.30799C61.3856 7.76453 61.4201 8.56168 61.4201 8.56168L64.6154 6.75588L65.3236 4.46202L67.8108 4.00651L70.0044 1.15952Z" fill="#EEBC46"/>
</svg>
