<svg width="36" height="36" viewBox="0 0 36 36" fill="none" xmlns="http://www.w3.org/2000/svg">
<path d="M18.0323 23.1392C17.3297 23.1392 16.7032 23.0099 16.1531 22.7514C15.6062 22.4929 15.172 22.1366 14.8505 21.6825C14.529 21.2285 14.3616 20.7081 14.3484 20.1214H16.4364C16.4596 20.5159 16.6254 20.8357 16.9336 21.081C17.2418 21.3262 17.6081 21.4489 18.0323 21.4489C18.3704 21.4489 18.6687 21.3743 18.9272 21.2251C19.189 21.0727 19.3929 20.8622 19.5387 20.5938C19.6879 20.322 19.7624 20.0104 19.7624 19.6591C19.7624 19.3011 19.6862 18.9863 19.5337 18.7145C19.3846 18.4427 19.1774 18.2306 18.9123 18.0781C18.6471 17.9257 18.3439 17.8478 18.0025 17.8445C17.7042 17.8445 17.4142 17.9058 17.1325 18.0284C16.854 18.151 16.637 18.3184 16.4812 18.5305L14.5671 18.1875L15.0494 12.8182H21.2738V14.5781H16.8242L16.5607 17.1286H16.6204C16.7994 16.8767 17.0695 16.6679 17.4308 16.5021C17.792 16.3364 18.1964 16.2536 18.6438 16.2536C19.257 16.2536 19.8039 16.3977 20.2844 16.6861C20.765 16.9744 21.1445 17.3705 21.4229 17.8743C21.7013 18.3748 21.8389 18.9515 21.8356 19.6044C21.8389 20.2905 21.6798 20.9003 21.3583 21.4339C21.0401 21.9643 20.5943 22.3819 20.021 22.6868C19.4509 22.9884 18.788 23.1392 18.0323 23.1392Z" fill="#7E92A2"/>
<rect x="1" y="1" width="34" height="34" rx="17" stroke="#D6E1E6" stroke-width="2"/>
</svg>
