<svg width="36" height="36" viewBox="0 0 36 36" fill="none" xmlns="http://www.w3.org/2000/svg">
<path d="M17.9745 23.1392C17.2321 23.1392 16.5709 23.0116 15.9909 22.7564C15.4142 22.4979 14.9584 22.1432 14.6237 21.6925C14.2922 21.2384 14.1215 20.7147 14.1116 20.1214H16.2792C16.2925 20.37 16.3737 20.5888 16.5228 20.7777C16.6753 20.9633 16.8775 21.1075 17.1294 21.2102C17.3812 21.313 17.6646 21.3643 17.9795 21.3643C18.3076 21.3643 18.5976 21.3063 18.8495 21.1903C19.1014 21.0743 19.2986 20.9136 19.4411 20.7081C19.5837 20.5026 19.6549 20.2656 19.6549 19.9972C19.6549 19.7254 19.5787 19.4851 19.4262 19.2763C19.2771 19.0642 19.0616 18.8984 18.7799 18.7791C18.5015 18.6598 18.1701 18.6001 17.7856 18.6001H16.836V17.0192H17.7856C18.1104 17.0192 18.3971 16.9628 18.6457 16.8501C18.8976 16.7375 19.0931 16.5817 19.2323 16.3828C19.3715 16.1806 19.4411 15.9453 19.4411 15.6768C19.4411 15.4216 19.3798 15.1979 19.2572 15.0057C19.1379 14.8101 18.9688 14.6577 18.7501 14.5483C18.5347 14.4389 18.2828 14.3842 17.9944 14.3842C17.7027 14.3842 17.4359 14.4373 17.194 14.5433C16.952 14.6461 16.7581 14.7936 16.6123 14.9858C16.4665 15.178 16.3886 15.4034 16.3786 15.6619H14.3154C14.3254 15.0753 14.4927 14.5582 14.8176 14.1108C15.1424 13.6634 15.5799 13.3137 16.1301 13.0618C16.6836 12.8066 17.3083 12.679 18.0044 12.679C18.707 12.679 19.3218 12.8066 19.8488 13.0618C20.3758 13.317 20.7851 13.6617 21.0768 14.0959C21.3718 14.5268 21.5176 15.0107 21.5143 15.5476C21.5176 16.1177 21.3403 16.5933 20.9823 16.9744C20.6277 17.3556 20.1653 17.5975 19.5953 17.7003V17.7798C20.3443 17.8759 20.9144 18.1361 21.3055 18.5604C21.6999 18.9813 21.8954 19.5083 21.8921 20.1413C21.8954 20.7214 21.7281 21.2367 21.39 21.6875C21.0553 22.1383 20.5929 22.4929 20.0029 22.7514C19.413 23.0099 18.7368 23.1392 17.9745 23.1392Z" fill="#7E92A2"/>
<rect x="1" y="1" width="34" height="34" rx="17" stroke="#D6E1E6" stroke-width="2"/>
</svg>
