<svg width="36" height="36" viewBox="0 0 36 36" fill="none" xmlns="http://www.w3.org/2000/svg">
<path d="M14.4161 23V21.4489L18.0404 18.093C18.3486 17.7947 18.6072 17.5263 18.816 17.2876C19.0281 17.049 19.1888 16.8153 19.2982 16.5866C19.4076 16.3546 19.4623 16.1044 19.4623 15.8359C19.4623 15.5376 19.3943 15.2808 19.2584 15.0653C19.1225 14.8466 18.9369 14.6792 18.7016 14.5632C18.4663 14.4439 18.1995 14.3842 17.9012 14.3842C17.5896 14.3842 17.3179 14.4472 17.0858 14.5732C16.8538 14.6991 16.6749 14.8797 16.5489 15.1151C16.423 15.3504 16.36 15.6304 16.36 15.9553H14.3167C14.3167 15.2891 14.4675 14.7107 14.7691 14.2202C15.0707 13.7296 15.4933 13.3501 16.0368 13.0817C16.5804 12.8132 17.2068 12.679 17.9161 12.679C18.6453 12.679 19.28 12.8082 19.8202 13.0668C20.3638 13.322 20.7864 13.6766 21.088 14.1307C21.3896 14.5848 21.5404 15.1051 21.5404 15.6918C21.5404 16.0762 21.4642 16.4557 21.3117 16.8303C21.1626 17.2048 20.8957 17.6207 20.5113 18.0781C20.1268 18.5322 19.5849 19.0774 18.8856 19.7138L17.3991 21.1705V21.2401H21.6746V23H14.4161Z" fill="#7E92A2"/>
<rect x="1" y="1" width="34" height="34" rx="17" stroke="#D6E1E6" stroke-width="2"/>
</svg>
