<svg width="20" height="21" viewBox="0 0 20 21" fill="none" xmlns="http://www.w3.org/2000/svg">
<path d="M9.99984 19.3984C5.05817 19.3984 1.0415 15.3817 1.0415 10.44C1.0415 5.49836 5.05817 1.48169 9.99984 1.48169C14.9415 1.48169 18.9582 5.49836 18.9582 10.44C18.9582 15.3817 14.9415 19.3984 9.99984 19.3984ZM9.99984 2.73169C5.74984 2.73169 2.2915 6.19002 2.2915 10.44C2.2915 14.69 5.74984 18.1484 9.99984 18.1484C14.2498 18.1484 17.7082 14.69 17.7082 10.44C17.7082 6.19002 14.2498 2.73169 9.99984 2.73169Z" fill="#7E92A2"/>
<path d="M7.5002 18.565H6.66686C6.3252 18.565 6.04186 18.2817 6.04186 17.94C6.04186 17.5983 6.30853 17.3233 6.6502 17.315C5.34186 12.8483 5.34186 8.03167 6.6502 3.565C6.30853 3.55667 6.04186 3.28167 6.04186 2.94C6.04186 2.59834 6.3252 2.315 6.66686 2.315H7.5002C7.7002 2.315 7.89186 2.415 8.00853 2.57334C8.1252 2.74 8.15853 2.94834 8.09186 3.14C6.5252 7.84834 6.5252 13.0317 8.09186 17.7483C8.15853 17.94 8.1252 18.1483 8.00853 18.315C7.89186 18.465 7.7002 18.565 7.5002 18.565Z" fill="#7E92A2"/>
<path d="M12.5 18.565C12.4333 18.565 12.3667 18.5567 12.3 18.5317C11.975 18.4233 11.7917 18.065 11.9083 17.74C13.475 13.0317 13.475 7.84832 11.9083 3.13166C11.8 2.80666 11.975 2.44832 12.3 2.33999C12.6333 2.23166 12.9833 2.40666 13.0917 2.73166C14.75 7.69832 14.75 13.165 13.0917 18.1233C13.0083 18.3983 12.7583 18.565 12.5 18.565Z" fill="#7E92A2"/>
<path d="M10 14.7733C7.675 14.7733 5.35833 14.4483 3.125 13.79C3.11667 14.1233 2.84167 14.3983 2.5 14.3983C2.15833 14.3983 1.875 14.115 1.875 13.7733V12.94C1.875 12.74 1.975 12.5483 2.13333 12.4316C2.3 12.315 2.50833 12.2816 2.7 12.3483C7.40833 13.915 12.6 13.915 17.3083 12.3483C17.5 12.2816 17.7083 12.315 17.875 12.4316C18.0417 12.5483 18.1333 12.74 18.1333 12.94V13.7733C18.1333 14.115 17.85 14.3983 17.5083 14.3983C17.1667 14.3983 16.8917 14.1316 16.8833 13.79C14.6417 14.4483 12.325 14.7733 10 14.7733Z" fill="#7E92A2"/>
<path d="M17.5001 8.56503C17.4335 8.56503 17.3668 8.5567 17.3001 8.5317C12.5918 6.96503 7.40015 6.96503 2.69181 8.5317C2.35848 8.64003 2.00848 8.46503 1.90015 8.14003C1.80015 7.8067 1.97515 7.4567 2.30015 7.34836C7.26681 5.69003 12.7335 5.69003 17.6918 7.34836C18.0168 7.4567 18.2001 7.81503 18.0835 8.14003C18.0085 8.39836 17.7585 8.56503 17.5001 8.56503Z" fill="#7E92A2"/>
</svg>
