<svg width="25" height="25" viewBox="0 0 25 25" fill="none" xmlns="http://www.w3.org/2000/svg">
<path d="M12.833 8.88C14.2137 8.88 15.333 7.76072 15.333 6.38C15.333 4.99929 14.2137 3.88 12.833 3.88C11.4523 3.88 10.333 4.99929 10.333 6.38C10.333 7.76072 11.4523 8.88 12.833 8.88Z" fill="#092C4C"/>
<path d="M12.833 15.88C14.2137 15.88 15.333 14.7607 15.333 13.38C15.333 11.9993 14.2137 10.88 12.833 10.88C11.4523 10.88 10.333 11.9993 10.333 13.38C10.333 14.7607 11.4523 15.88 12.833 15.88Z" fill="#092C4C"/>
<path d="M12.833 22.88C14.2137 22.88 15.333 21.7607 15.333 20.38C15.333 18.9993 14.2137 17.88 12.833 17.88C11.4523 17.88 10.333 18.9993 10.333 20.38C10.333 21.7607 11.4523 22.88 12.833 22.88Z" fill="#092C4C"/>
</svg>
