<svg width="41" height="25" viewBox="0 0 41 25" fill="none" xmlns="http://www.w3.org/2000/svg">
<path d="M21.1665 8.88C22.5472 8.88 23.6665 7.76072 23.6665 6.38C23.6665 4.99929 22.5472 3.88 21.1665 3.88C19.7858 3.88 18.6665 4.99929 18.6665 6.38C18.6665 7.76072 19.7858 8.88 21.1665 8.88Z" fill="#092C4C"/>
<path d="M21.1665 15.88C22.5472 15.88 23.6665 14.7607 23.6665 13.38C23.6665 11.9993 22.5472 10.88 21.1665 10.88C19.7858 10.88 18.6665 11.9993 18.6665 13.38C18.6665 14.7607 19.7858 15.88 21.1665 15.88Z" fill="#092C4C"/>
<path d="M21.1665 22.88C22.5472 22.88 23.6665 21.7607 23.6665 20.38C23.6665 18.9993 22.5472 17.88 21.1665 17.88C19.7858 17.88 18.6665 18.9993 18.6665 20.38C18.6665 21.7607 19.7858 22.88 21.1665 22.88Z" fill="#092C4C"/>
</svg>
