<svg width="24" height="25" viewBox="0 0 24 25" fill="none" xmlns="http://www.w3.org/2000/svg">
<path d="M11.9985 11.152C11.6603 11.152 11.3818 10.8694 11.3818 10.5287V7.76145C11.3818 7.4207 11.6603 7.13818 11.9985 7.13818C12.3367 7.13818 12.6152 7.4207 12.6152 7.76145V10.5287C12.6152 10.8778 12.3367 11.152 11.9985 11.152Z" fill="#7E92A2"/>
<path d="M12.0188 19.3208C9.88037 19.3208 7.75189 18.9801 5.71289 18.2986C4.96691 18.0493 4.38994 17.5092 4.14129 16.8277C3.89263 16.1463 3.97219 15.3652 4.37999 14.6837L5.43436 12.922C5.66313 12.5314 5.87194 11.8001 5.87194 11.343V9.59785C5.87194 6.19902 8.62713 3.44 12.0188 3.44C15.4105 3.44 18.1556 6.19902 18.1556 9.59785V11.343C18.1556 11.7917 18.3646 12.5314 18.5934 12.922L19.6476 14.6837C20.0355 15.3319 20.1052 16.1047 19.8466 16.8112C19.588 17.5175 19.031 18.0577 18.3148 18.2986C16.2858 18.9884 14.1573 19.3208 12.0188 19.3208ZM12.0188 4.69491C9.31343 4.69491 7.11523 6.89707 7.11523 9.60623V11.3514C7.11523 12.0245 6.85664 12.9968 6.50852 13.5702L5.45427 15.3403C5.23545 15.6976 5.18571 16.0798 5.31501 16.4123C5.43436 16.7446 5.71279 16.9939 6.11064 17.1269C9.93004 18.3983 14.1175 18.3983 17.9369 17.1269C18.2949 17.0106 18.5635 16.7446 18.6928 16.3956C18.8221 16.0466 18.7823 15.6643 18.5934 15.3403L17.539 13.5785C17.1909 13.0051 16.9223 12.0328 16.9223 11.3596V9.6145C16.9124 6.89707 14.7143 4.69491 12.0188 4.69491Z" fill="#7E92A2"/>
<path d="M11.9985 21.44C11.1133 21.44 10.238 21.0744 9.61133 20.4428C8.98471 19.8112 8.6167 18.9387 8.6167 18.0494H9.85999C9.85999 18.6146 10.0888 19.163 10.4866 19.5619C10.8845 19.9608 11.4315 20.1935 11.9985 20.1935C13.1721 20.1935 14.137 19.2296 14.137 18.0494H15.3803C15.3803 19.9192 13.8584 21.44 11.9985 21.44Z" fill="#7E92A2"/>
</svg>
